<svg width="903" height="743" viewBox="0 0 903 743" fill="none" xmlns="http://www.w3.org/2000/svg">
<g clip-path="url(#clip0)">
<path d="M796.744 601.427C778.57 636.892 755.52 671.191 726.354 702.235C725.707 702.936 725.052 703.619 724.392 704.314L655.292 671.601C655.714 670.899 656.178 670.111 656.676 669.249C686.359 618.462 865.541 308.657 859.879 238.49C860.539 244.277 881.777 435.659 796.744 601.427Z" fill="#E6E6E6"/>
<path d="M739.685 708.546C738.718 709.096 737.727 709.634 736.728 710.154L684.89 685.614C685.615 685.099 686.459 684.491 687.43 683.808C703.311 672.405 750.535 638.194 796.744 601.427C846.402 561.916 894.896 519.463 902.097 499.199C900.635 503.846 855.183 645.096 739.685 708.546Z" fill="#E6E6E6"/>
<path d="M267 742.063C414.46 742.063 534 730.227 534 715.627C534 701.027 414.46 689.192 267 689.192C119.54 689.192 0 701.027 0 715.627C0 730.227 119.54 742.063 267 742.063Z" fill="#E6E6E6"/>
<path d="M340.407 445.28L275.039 449.483L257.506 387.422L314.96 373.958L340.407 445.28Z" fill="#2F2E41"/>
<path d="M429.541 526.551L447.441 526.698C449.252 526.713 451.045 526.333 452.694 525.584C454.343 524.835 455.809 523.735 456.989 522.361C458.17 520.987 459.036 519.372 459.528 517.629C460.021 515.886 460.127 514.057 459.839 512.268V512.268C459.53 510.344 458.773 508.519 457.629 506.94C456.486 505.361 454.988 504.073 453.256 503.179C451.523 502.284 449.605 501.809 447.656 501.792C445.707 501.774 443.78 502.214 442.032 503.077L425.152 511.407L367.415 524.282L342.68 498.993L328.472 522.394L361.85 548.182L429.541 526.551Z" fill="#FFB8B8"/>
<path d="M426.186 711.49L405.096 715.546C390.691 670.137 375.083 627.135 375.084 593.875C354.698 616.564 329.418 629.545 299.649 633.621L302.893 583.331L327.227 570.353L364.47 553.163C367.731 551.658 371.249 550.788 374.835 550.6C381.808 550.233 388.669 552.458 394.099 556.847C399.529 561.236 403.144 567.479 404.247 574.373L426.186 711.49Z" fill="#FFB8B8"/>
<path d="M422.941 691.212C422.941 691.212 424.963 690.355 433.039 700.923C433.039 700.923 458.83 705.725 454.564 717.355C450.299 728.984 417.138 728.618 413.987 726.842C410.836 725.065 385.754 725.102 387.488 717.2C389.222 709.299 399.213 700.468 399.213 700.468C399.213 700.468 403.807 709.776 410.947 709.815C420.508 709.868 423.752 701.756 422.13 693.645C422.115 693.569 423.002 691.26 422.941 691.212Z" fill="#2F2E41"/>
<path d="M260.66 663.553C260.66 663.553 263.82 672.191 249.594 677.395C249.594 677.395 235.64 703.813 224.438 695.238C213.236 686.663 224.861 650.727 227.86 647.902C230.859 645.077 239.311 617.79 247.315 622.351C255.32 626.911 261.541 640.765 261.541 640.765C261.541 640.765 235.766 649.042 247.958 668.2C247.958 668.2 253.274 668.559 260.66 663.553Z" fill="#2F2E41"/>
<path d="M290.139 434.469C304.808 434.469 316.7 422.578 316.7 407.908C316.7 393.239 304.808 381.347 290.139 381.347C275.469 381.347 263.578 393.239 263.578 407.908C263.578 422.578 275.469 434.469 290.139 434.469Z" fill="#FFB8B8"/>
<path d="M313.032 478.289H266.798L257.064 449.899C273.939 444.748 269.997 430.121 266.798 415.831H313.032C304.069 433.709 292.934 459.009 314.655 463.688L313.032 478.289Z" fill="#FFB8B8"/>
<path d="M325.199 627.538L316.794 633.926C313.18 636.673 308.91 638.427 304.408 639.013C299.906 639.6 295.33 639 291.132 637.271V637.271C267.056 619.225 247.421 624.633 231.919 651.872C213.325 630.886 211.269 600.493 227.863 569.136L319.927 571.164L338.583 565.486L325.199 627.538Z" fill="#2F2E41"/>
<path d="M294.539 721.517C289.264 723.14 283.585 722.855 278.499 720.712C273.413 718.569 269.242 714.704 266.719 709.796C258.446 702.508 251.465 692.075 245.41 679.387C241.066 670.08 237.335 660.498 234.243 650.704C230.053 637.764 237.059 623.627 250.097 619.756C250.485 619.641 250.878 619.532 251.275 619.43C268.681 614.961 286.556 625.001 292.506 641.958L309.807 691.266C310.855 694.252 311.289 697.418 311.083 700.576C310.878 703.733 310.037 706.816 308.611 709.641C307.186 712.466 305.204 714.973 302.786 717.014C300.368 719.055 297.563 720.586 294.539 721.517V721.517Z" fill="#FFB8B8"/>
<path opacity="0.2" d="M242.464 673.772C242.464 673.772 262.742 696.484 266.798 709.462Z" fill="black"/>
<path d="M207.342 582.153L207.171 600.053C207.153 601.865 207.531 603.658 208.278 605.308C209.025 606.958 210.123 608.425 211.495 609.608C212.868 610.79 214.481 611.658 216.224 612.153C217.966 612.647 219.796 612.756 221.584 612.471V612.471C223.51 612.164 225.336 611.409 226.916 610.268C228.496 609.127 229.787 607.63 230.683 605.899C231.579 604.168 232.057 602.251 232.077 600.301C232.097 598.352 231.66 596.425 230.799 594.676L222.492 577.785L209.693 520.031L235.015 495.329L211.633 481.09L185.801 514.434L207.342 582.153Z" fill="#FFB8B8"/>
<path d="M326.011 569.136C302.705 608.283 265.223 601.413 225.43 570.758C242.212 558.21 231.919 522.09 217.319 519.657C202.221 517.14 200.405 486.265 194.607 470.988L265.176 445.032L284.237 460.038L303.299 455.577L311.114 458.35C316.199 460.155 320.611 463.474 323.754 467.86C326.897 472.247 328.622 477.491 328.696 482.887C312.682 506.022 300.827 530.702 326.011 569.136Z" fill="#F7B737"/>
<path d="M326.011 569.136C302.705 608.283 265.223 601.413 225.43 570.758C242.212 558.21 231.919 522.09 217.319 519.657C202.221 517.14 200.405 486.265 194.607 470.988L265.176 445.032L284.237 460.038L303.299 455.577L311.114 458.35C316.199 460.155 320.611 463.474 323.754 467.86C326.897 472.247 328.622 477.491 328.696 482.887C312.682 506.022 300.827 530.702 326.011 569.136Z" fill="#F7B737"/>
<path d="M334.933 537.502C334.933 537.502 331.341 518.982 319.551 524.794C307.76 530.607 306.949 514.384 306.949 514.384L316.277 460.444L354.4 501.001L334.933 537.502Z" fill="#F7B737"/>
<path d="M314.947 373.724C314.947 373.724 328.408 378.772 328.596 396.692C328.589 399.707 328.16 402.707 327.322 405.603C326.417 408.888 325.651 416.027 331.455 425.603C335.248 431.819 338.67 438.254 341.704 444.874V444.874L326.485 446.207L324.193 420.978C323.082 408.746 320.177 396.744 315.569 385.359L315.473 385.121C315.473 385.121 308.39 397.184 295.135 396.693L300.044 392.134C300.044 392.134 283.382 398.241 274.341 399.417C273.309 399.551 272.334 399.965 271.519 400.612C270.705 401.26 270.083 402.118 269.72 403.093C269.357 404.068 269.267 405.124 269.46 406.146C269.652 407.169 270.12 408.12 270.813 408.896C270.865 408.954 270.919 409.013 270.974 409.072C276.444 414.963 287.315 428.639 280.302 438.808C273.289 448.978 278.864 452.029 278.864 452.029L268.66 445.962L264.031 442.946L263.891 446.734L239.379 442.982C239.379 442.982 232.786 441.79 247.584 426.22C247.584 426.22 251.566 420.108 250.125 414.656C248.929 410.51 248.736 406.137 249.562 401.901C253.401 384.27 267.191 349.444 314.947 373.724Z" fill="#2F2E41"/>
<path d="M799.277 172.945H795.277V63.4C795.277 46.5853 788.597 30.4593 776.707 18.5695C764.818 6.67965 748.692 3.05176e-05 731.877 3.05176e-05H499.79C482.975 3.05176e-05 466.849 6.67965 454.959 18.5695C443.069 30.4593 436.39 46.5853 436.39 63.4V664.374C436.39 681.189 443.069 697.315 454.959 709.205C466.849 721.094 482.975 727.774 499.79 727.774H731.876C748.691 727.774 764.817 721.094 776.706 709.205C788.596 697.315 795.276 681.189 795.276 664.374V250.921H799.276L799.277 172.945Z" fill="#3F3D56"/>
<path d="M734.435 16.493H704.14C705.534 19.9089 706.066 23.6152 705.69 27.2853C705.314 30.9554 704.041 34.4767 701.983 37.5389C699.925 40.601 697.146 43.1101 693.89 44.8449C690.634 46.5797 687.001 47.4871 683.312 47.487H550.353C546.664 47.4867 543.032 46.5792 539.776 44.8445C536.521 43.1097 533.742 40.601 531.684 37.5393C529.627 34.4776 528.353 30.9568 527.977 27.2872C527.601 23.6176 528.133 19.9117 529.526 16.496H501.226C488.668 16.496 476.625 21.4845 467.746 30.3639C458.866 39.2434 453.878 51.2866 453.878 63.844V663.933C453.878 676.49 458.866 688.534 467.746 697.413C476.625 706.293 488.668 711.281 501.226 711.281H734.426C746.983 711.281 759.026 706.293 767.906 697.413C776.785 688.534 781.774 676.49 781.774 663.933V663.933V63.8409C781.774 51.2835 776.785 39.2403 767.906 30.3609C759.026 21.4814 746.983 16.493 734.426 16.493H734.435V16.493Z" fill="white"/>
<path d="M618.231 677.746C632.59 677.746 644.231 666.105 644.231 651.746C644.231 637.387 632.59 625.746 618.231 625.746C603.871 625.746 592.231 637.387 592.231 651.746C592.231 666.105 603.871 677.746 618.231 677.746Z" fill="#E6E6E6"/>
<path d="M512.755 411.298C510.297 411.298 508.297 413.581 508.297 416.386C508.297 419.191 510.297 421.474 512.755 421.474H722.897C725.355 421.474 727.355 419.191 727.355 416.386C727.355 413.581 725.355 411.298 722.897 411.298H512.755Z" fill="#E6E6E6"/>
<path d="M512.755 531.298C510.297 531.298 508.297 533.581 508.297 536.386C508.297 539.191 510.297 541.474 512.755 541.474H722.897C725.355 541.474 727.355 539.191 727.355 536.386C727.355 533.581 725.355 531.298 722.897 531.298H512.755Z" fill="#E6E6E6"/>
<path d="M512.755 441.826C510.297 441.826 508.297 444.108 508.297 446.913C508.297 449.719 510.297 452.001 512.755 452.001H603.18C605.637 452.001 607.637 449.719 607.637 446.913C607.637 444.108 605.637 441.826 603.18 441.826H512.755Z" fill="#E6E6E6"/>
<path d="M512.755 470.924C510.297 470.924 508.297 473.207 508.297 476.012C508.297 478.817 510.297 481.1 512.755 481.1H722.897C725.355 481.1 727.355 478.817 727.355 476.012C727.355 473.207 725.355 470.924 722.897 470.924H512.755Z" fill="#E6E6E6"/>
<path d="M512.755 501.451C510.297 501.451 508.297 503.734 508.297 506.539C508.297 509.344 510.297 511.627 512.755 511.627H603.18C605.637 511.627 607.637 509.344 607.637 506.539C607.637 503.734 605.637 501.451 603.18 501.451H512.755Z" fill="#E6E6E6"/>
<path d="M552.426 179.627H683.239C684.684 179.629 686.07 180.204 687.091 181.225C688.113 182.247 688.688 183.633 688.69 185.078V321.315C688.688 322.76 688.113 324.145 687.091 325.167C686.07 326.189 684.684 326.763 683.239 326.765H552.426C550.98 326.763 549.595 326.189 548.573 325.167C547.551 324.145 546.977 322.76 546.975 321.315V185.078C546.977 183.633 547.551 182.247 548.573 181.225C549.595 180.204 550.98 179.629 552.426 179.627Z" fill="#F7B737"/>
<path d="M655.365 298.671C655.852 298.671 656.334 298.576 656.783 298.391C657.233 298.205 657.642 297.933 657.986 297.589C658.33 297.245 658.603 296.837 658.79 296.388C658.976 295.938 659.072 295.457 659.072 294.97C659.072 294.484 658.976 294.002 658.79 293.553C658.603 293.103 658.33 292.695 657.986 292.351C657.642 292.008 657.233 291.735 656.783 291.55C656.334 291.364 655.852 291.269 655.365 291.27H580.299C579.813 291.269 579.331 291.364 578.881 291.55C578.432 291.735 578.023 292.008 577.679 292.351C577.335 292.695 577.061 293.103 576.875 293.553C576.689 294.002 576.593 294.484 576.593 294.97C576.593 295.457 576.689 295.938 576.875 296.388C577.061 296.837 577.335 297.245 577.679 297.589C578.023 297.933 578.432 298.205 578.881 298.391C579.331 298.576 579.813 298.671 580.299 298.671H655.365Z" fill="white"/>
<path d="M655.365 276.868C656.347 276.868 657.288 276.479 657.982 275.785C658.676 275.091 659.066 274.149 659.066 273.168C659.066 272.187 658.676 271.245 657.982 270.551C657.288 269.857 656.347 269.468 655.365 269.468H580.299C579.813 269.468 579.332 269.563 578.883 269.749C578.434 269.935 578.026 270.208 577.683 270.551C577.339 270.895 577.067 271.303 576.881 271.752C576.695 272.201 576.599 272.682 576.599 273.168C576.599 273.654 576.695 274.135 576.881 274.584C577.067 275.033 577.339 275.441 577.683 275.785C578.026 276.128 578.434 276.401 578.883 276.587C579.332 276.773 579.813 276.868 580.299 276.868H655.365Z" fill="white"/>
<path d="M617.832 207.722C622.439 207.722 626.942 209.088 630.773 211.647C634.603 214.207 637.589 217.844 639.352 222.101C641.115 226.357 641.576 231.04 640.677 235.558C639.778 240.077 637.56 244.227 634.302 247.485C631.045 250.742 626.894 252.96 622.376 253.859C617.858 254.758 613.174 254.297 608.918 252.534C604.662 250.771 601.024 247.785 598.465 243.955C595.906 240.124 594.539 235.621 594.539 231.014C594.546 224.839 597.003 218.918 601.369 214.552C605.736 210.185 611.657 207.729 617.832 207.722V207.722Z" fill="white"/>
<path d="M618 239C624.627 239 630 233.404 630 226.5C630 219.596 624.627 214 618 214C611.373 214 606 219.596 606 226.5C606 233.404 611.373 239 618 239Z" fill="#FFB8B8"/>
<path d="M626.461 213.979C626.461 213.979 631.26 215.785 631.327 222.198C631.325 223.277 631.172 224.35 630.873 225.387C630.55 226.562 630.277 229.117 632.347 232.544C633.699 234.768 634.919 237.071 636 239.44V239.44L630.575 239.917L629.758 230.888C629.362 226.511 628.326 222.217 626.683 218.142L626.649 218.057C626.649 218.057 624.124 222.374 619.398 222.198L621.149 220.567C621.149 220.567 615.209 222.752 611.986 223.173C611.618 223.221 611.27 223.369 610.98 223.601C610.689 223.833 610.468 224.14 610.338 224.489C610.209 224.837 610.177 225.215 610.245 225.581C610.314 225.947 610.481 226.287 610.728 226.565C610.747 226.586 610.766 226.607 610.785 226.628C612.735 228.736 616.611 233.63 614.111 237.269C611.61 240.908 613.598 242 613.598 242L609.96 239.829L608.31 238.75L608.26 240.105L599.522 238.763C599.522 238.763 597.172 238.336 602.447 232.764C602.447 232.764 603.866 230.577 603.353 228.627C602.926 227.143 602.857 225.578 603.152 224.062C604.521 217.753 609.437 205.29 626.461 213.979Z" fill="#2F2E41"/>
</g>
<defs>
<clipPath id="clip0">
<rect width="902.097" height="742.063" fill="white"/>
</clipPath>
</defs>
</svg>
