<svg width="699" height="598" viewBox="0 0 699 598" fill="none" xmlns="http://www.w3.org/2000/svg">
<path d="M661.227 485.446L127.913 587.548C119.448 589.158 110.69 587.345 103.56 582.507C96.4306 577.668 91.5112 570.199 89.8814 561.738L11.096 150.212C9.4854 141.747 11.2982 132.989 16.1367 125.86C20.9752 118.73 28.4442 113.81 36.9052 112.181L570.22 10.0793C578.684 8.4687 587.442 10.2815 594.572 15.12C601.702 19.9585 606.621 27.4275 608.251 35.8886L687.036 447.415C688.647 455.879 686.834 464.637 681.996 471.767C677.157 478.897 669.688 483.816 661.227 485.446V485.446Z" fill="white"/>
<path d="M648.179 508.632L109.176 574.395C99.9639 575.509 90.686 572.922 83.3782 567.204C76.0703 561.485 71.3292 553.101 70.195 543.892L19.4499 127.976C18.3364 118.763 20.9227 109.486 26.6412 102.178C32.3598 94.8699 40.7436 90.1287 49.9534 88.9945L588.956 23.2318C598.169 22.1183 607.447 24.7046 614.754 30.4231C622.062 36.1417 626.803 44.5255 627.938 53.7353L678.683 469.651C679.796 478.863 677.21 488.141 671.491 495.449C665.773 502.757 657.389 507.498 648.179 508.632ZM50.68 94.9504C43.0491 95.8901 36.1025 99.8185 31.3643 105.874C26.626 111.929 24.4831 119.616 25.4057 127.249L76.1508 543.165C77.0906 550.796 81.0189 557.742 87.074 562.481C93.1291 567.219 100.816 569.362 108.45 568.439L647.453 502.676C655.084 501.737 662.03 497.808 666.768 491.753C671.507 485.698 673.649 478.011 672.727 470.378L621.982 54.462C621.042 46.831 617.114 39.8844 611.059 35.1462C605.003 30.408 597.316 28.2651 589.683 29.1876L50.68 94.9504Z" fill="#E6E6E6"/>
<path d="M515.099 185.776C508.836 186.536 502.836 188.738 497.569 192.21C492.302 195.682 487.913 200.329 484.748 205.785C480.482 204.536 475.974 204.365 471.626 205.288C467.279 206.212 463.229 208.2 459.84 211.075C456.451 213.95 453.828 217.622 452.209 221.76C450.589 225.899 450.022 230.375 450.559 234.787L560.577 221.364C559.928 216.041 558.236 210.898 555.599 206.229C552.962 201.56 549.431 197.456 545.208 194.151C540.985 190.846 536.153 188.406 530.987 186.969C525.82 185.532 520.422 185.127 515.099 185.776Z" fill="#E6E6E6"/>
<path d="M582.359 398.523L146.591 451.691C142.289 452.219 137.924 451.895 133.747 450.735C129.571 449.575 125.664 447.603 122.25 444.932C118.836 442.261 115.983 438.942 113.853 435.167C111.723 431.392 110.358 427.233 109.837 422.93L79.5306 174.532C78.4808 165.846 80.9193 157.099 86.3111 150.208C91.7028 143.318 99.6076 138.848 108.291 137.779L544.06 84.6113C552.745 83.5615 561.493 86 568.383 91.3917C575.274 96.7835 579.744 104.688 580.813 113.372L611.12 361.77C611.65 366.072 611.326 370.437 610.167 374.614C609.007 378.791 607.035 382.699 604.364 386.113C601.692 389.527 598.374 392.38 594.598 394.51C590.822 396.639 586.663 398.003 582.359 398.523ZM108.533 139.764C100.376 140.769 92.9504 144.968 87.8854 151.44C82.8204 157.913 80.5298 166.131 81.5159 174.29L111.822 422.688C112.312 426.73 113.594 430.637 115.594 434.183C117.595 437.73 120.276 440.847 123.483 443.357C126.689 445.866 130.36 447.719 134.283 448.808C138.207 449.897 142.307 450.202 146.349 449.705L582.117 396.538C586.16 396.05 590.067 394.768 593.614 392.768C597.161 390.767 600.279 388.087 602.788 384.88C605.298 381.673 607.15 378.002 608.239 374.078C609.328 370.154 609.633 366.054 609.135 362.012L578.828 113.614C577.823 105.457 573.624 98.0311 567.151 92.9661C560.679 87.9011 552.461 85.6104 544.302 86.5966L108.533 139.764Z" fill="#3F3D56"/>
<path d="M285.113 303.594C286.065 305.513 287.121 307.377 288.278 309.18L288.278 309.185C289.216 310.653 290.214 312.073 291.272 313.446L393.65 300.955L393.675 301.159C394.415 299.501 395.075 297.806 395.655 296.075C396.346 294.049 396.924 291.986 397.385 289.896L285.113 303.594ZM288.404 309.102L288.288 308.151L395.413 295.081L395.529 296.032L288.404 309.102ZM297.923 320.744L389.074 309.623C390.672 307.175 392.09 304.615 393.314 301.961L291.965 314.326C293.791 316.608 295.782 318.753 297.923 320.744V320.744Z" fill="#3F3D56"/>
<path d="M398.334 284.368C398.149 285.9 397.898 287.412 397.593 288.906L284.673 302.683C284.017 301.306 283.41 299.899 282.862 298.456L398.334 284.368Z" fill="#3F3D56"/>
<path d="M398.371 284.079L398.289 283.408L282.675 297.514L282.756 298.184C282.15 296.58 281.61 294.936 281.135 293.254L398.759 278.903C398.706 280.646 398.577 282.372 398.371 284.079Z" fill="#3F3D56"/>
<path d="M280.159 286.996L280.275 287.947L398.685 273.5C398.775 274.989 398.81 276.466 398.781 277.936L280.881 292.321C280.506 290.909 280.181 289.473 279.916 288.01C279.678 286.775 279.487 285.525 279.332 284.256C279.228 283.4 279.143 282.547 279.073 281.697L279.072 281.687C278.933 279.876 278.872 278.079 278.888 276.297L278.887 276.292C278.908 274.799 278.98 273.318 279.103 271.847L395.394 257.659L395.289 256.794C395.889 258.467 396.413 260.178 396.862 261.927L279.1 276.295L279.216 277.246L397.097 262.864C397.416 264.171 397.69 265.494 397.92 266.835L397.979 267.204L279.632 281.643L279.748 282.594L398.129 268.15C398.212 268.676 398.281 269.203 398.346 269.735C398.461 270.676 398.551 271.611 398.621 272.543L280.159 286.996Z" fill="#3F3D56"/>
<path d="M395.259 256.71L279.197 270.871C279.354 269.347 279.568 267.838 279.838 266.345L393.529 252.474L393.523 252.421C394.157 253.82 394.733 255.25 395.259 256.71Z" fill="#3F3D56"/>
<path d="M393.127 251.558L280.027 265.357C280.397 263.479 280.856 261.632 281.404 259.815L281.515 260.723L390.569 247.418L390.458 246.514C391.425 248.143 392.315 249.824 393.127 251.558Z" fill="#3F3D56"/>
<path d="M390.429 246.47L281.418 259.77C281.893 258.197 282.434 256.649 283.041 255.124L387.614 242.366L387.585 242.128C388.596 243.529 389.544 244.976 390.429 246.47Z" fill="#3F3D56"/>
<path d="M387.098 241.464L283.448 254.11C287.515 244.312 294.115 235.768 302.574 229.351C311.032 222.935 321.045 218.876 331.589 217.589C342.132 216.303 352.827 217.835 362.58 222.03C372.333 226.225 380.794 232.932 387.098 241.464V241.464Z" fill="#3F3D56"/>
<path opacity="0.5" d="M282.756 298.185C282.787 298.277 282.822 298.368 282.862 298.456L282.791 298.465L282.756 298.185Z" fill="black"/>
<path opacity="0.5" d="M398.371 284.079L398.405 284.359L398.334 284.368C398.351 284.272 398.364 284.176 398.371 284.079V284.079Z" fill="black"/>
<path opacity="0.5" d="M398.688 272.535L398.804 273.485L398.685 273.5C398.68 273.38 398.675 273.26 398.665 273.14C398.65 272.94 398.636 272.744 398.621 272.543L398.688 272.535Z" fill="black"/>
<path opacity="0.5" d="M398.036 267.197L398.152 268.147L398.129 268.15C398.085 267.832 398.032 267.52 397.979 267.204L398.036 267.197Z" fill="black"/>
<path opacity="0.5" d="M395.278 256.708L395.289 256.794C395.28 256.766 395.267 256.739 395.259 256.71L395.278 256.708Z" fill="black"/>
<path opacity="0.5" d="M281.399 259.772L281.419 259.77C281.416 259.786 281.411 259.801 281.405 259.816L281.399 259.772Z" fill="black"/>
<path opacity="0.5" d="M390.453 246.467L390.459 246.515C390.45 246.499 390.44 246.484 390.429 246.47L390.453 246.467Z" fill="black"/>
<path opacity="0.5" d="M383.08 236.54L286.169 248.364L286.285 249.315L383.196 237.491L383.08 236.54Z" fill="black"/>
<path opacity="0.5" d="M378.664 231.665L289.525 242.54L289.641 243.491L378.78 232.615L378.664 231.665Z" fill="black"/>
<path opacity="0.5" d="M372.306 227.027L294.34 236.539L294.456 237.49L372.422 227.977L372.306 227.027Z" fill="black"/>
<path opacity="0.5" d="M364.489 222.564L299.654 230.603L299.771 231.553L364.606 223.514L364.489 222.564Z" fill="black"/>
<path d="M326.402 246.833L297.985 250.3L305.654 313.162L334.072 309.694L326.402 246.833Z" fill="#E6E6E6"/>
<path d="M311.707 254.633L312.91 254.486C314.683 254.27 316.469 254.766 317.875 255.864C319.282 256.963 320.193 258.574 320.409 260.344L321.562 269.794L306.989 271.572L305.836 262.122C305.62 260.352 306.117 258.569 307.218 257.165C308.319 255.76 309.934 254.849 311.707 254.633V254.633Z" fill="#3F3D56"/>
<path d="M362.895 241.823C364.828 241.587 366.775 242.127 368.308 243.325C369.84 244.522 370.834 246.279 371.069 248.208L372.519 260.089L357.946 261.867L356.496 249.986C356.261 248.057 356.803 246.113 358.003 244.582C359.203 243.051 360.963 242.059 362.895 241.823Z" fill="#E6E6E6"/>
<path d="M393.543 262.692C393.612 263.259 393.65 263.83 393.655 264.401L338.129 271.175L337.744 268.023L393.295 261.246C393.4 261.723 393.482 262.205 393.543 262.692Z" fill="#E6E6E6"/>
<path d="M344.592 257.865L345.03 256.966C344.816 256.545 344.578 256.135 344.318 255.74L344.004 256.064L344.228 255.604C343.901 255.118 343.654 254.817 343.654 254.817C343.122 255.983 342.779 257.226 342.638 258.5L343.461 259.484L342.619 258.959C342.617 259.173 342.629 259.386 342.654 259.598C342.915 261.733 343.824 263.379 344.686 263.274C345.548 263.169 346.035 261.353 345.775 259.217C345.676 258.54 345.473 257.881 345.174 257.265L344.592 257.865Z" fill="#F7B733"/>
<path d="M348.638 259.25L349.584 258.924C349.732 258.474 349.854 258.017 349.95 257.554L349.498 257.561L349.983 257.394C350.096 256.82 350.134 256.433 350.134 256.433C348.932 256.881 347.809 257.518 346.808 258.32L346.692 259.597L346.469 258.631C346.316 258.781 346.174 258.94 346.041 259.108C344.713 260.802 344.19 262.609 344.874 263.143C345.558 263.677 347.189 262.736 348.517 261.042C348.927 260.493 349.25 259.884 349.475 259.237L348.638 259.25Z" fill="#F7B733"/>
<path d="M350.001 267.47C347.766 267.889 345.293 268.036 342.682 268.363L341.954 262.394C344.423 262.437 346.887 262.137 349.273 261.501L350.001 267.47Z" fill="#E6E6E6"/>
<path d="M381.268 253.39L381.706 252.492C381.492 252.07 381.254 251.66 380.994 251.265L380.679 251.589L380.904 251.129C380.577 250.644 380.33 250.343 380.33 250.343C379.797 251.509 379.454 252.752 379.314 254.025L380.137 255.009L379.294 254.485C379.293 254.698 379.305 254.911 379.33 255.123C379.59 257.259 380.5 258.904 381.362 258.799C382.224 258.694 382.711 256.878 382.451 254.742C382.351 254.065 382.149 253.407 381.85 252.79L381.268 253.39Z" fill="#F7B733"/>
<path d="M385.314 254.775L386.26 254.449C386.408 254 386.53 253.542 386.626 253.079L386.174 253.086L386.658 252.919C386.771 252.345 386.81 251.958 386.81 251.958C385.608 252.407 384.485 253.044 383.483 253.845L383.368 255.122L383.144 254.157C382.992 254.306 382.849 254.466 382.717 254.633C381.389 256.328 380.866 258.134 381.55 258.668C382.233 259.202 383.864 258.262 385.193 256.567C385.602 256.018 385.926 255.409 386.151 254.762L385.314 254.775Z" fill="#F7B733"/>
<path d="M386.677 262.995C384.442 263.414 381.968 263.561 379.358 263.888L378.63 257.919C381.099 257.963 383.562 257.662 385.949 257.026L386.677 262.995Z" fill="#E6E6E6"/>
<path d="M305.743 285.602C307.352 285.406 308.524 284.15 308.359 282.797C308.194 281.445 306.755 280.507 305.145 280.704C303.535 280.9 302.364 282.156 302.529 283.509C302.694 284.861 304.133 285.799 305.743 285.602Z" fill="#3F3D56"/>
<path d="M481.816 329.965C476.98 376.867 380.413 364.066 336.748 396.021C283.737 370.251 243.035 399.951 211.334 358.937C231.422 306.147 282.455 311.835 342.495 304.51C403.164 297.108 449.797 282.67 481.816 329.965Z" fill="#F7B733"/>
<path d="M343.33 313.723C401.04 306.682 449.3 290.174 481.429 329.289C482.568 327.345 483.67 325.378 484.735 323.388C452.716 276.093 402.491 293.962 341.822 301.364C281.782 308.69 227.208 302.878 207.12 355.668C208.642 357.398 210.2 359.094 211.791 360.757C234.022 315.773 286.2 320.693 343.33 313.723Z" fill="#3F3D56"/>
<path d="M415.652 302.329C415.652 302.329 415.141 295.411 421.979 295.388Z" fill="#3F3D56"/>
<path d="M412.949 296.016C414.812 295.789 416.138 294.097 415.911 292.237C415.684 290.377 413.99 289.053 412.127 289.281C410.264 289.508 408.937 291.2 409.164 293.06C409.391 294.92 411.086 296.243 412.949 296.016Z" fill="#F7B733"/>
<path d="M413.633 298.27L412.681 298.387L413.493 305.041L414.445 304.925L413.633 298.27Z" fill="#3F3D56"/>
<path d="M461.498 309.76C461.498 309.76 460.988 302.842 467.826 302.819Z" fill="#3F3D56"/>
<path d="M458.795 303.447C460.658 303.22 461.984 301.528 461.758 299.668C461.531 297.808 459.836 296.484 457.973 296.712C456.11 296.939 454.784 298.631 455.01 300.491C455.237 302.351 456.932 303.675 458.795 303.447Z" fill="#F7B733"/>
<path d="M459.479 305.702L458.527 305.818L459.339 312.472L460.291 312.356L459.479 305.702Z" fill="#3F3D56"/>
<path d="M225.208 341.484C225.208 341.484 224.698 334.566 231.536 334.543Z" fill="#3F3D56"/>
<path d="M222.505 335.171C224.368 334.944 225.694 333.252 225.468 331.392C225.241 329.532 223.546 328.208 221.683 328.436C219.82 328.663 218.494 330.355 218.72 332.215C218.947 334.075 220.642 335.399 222.505 335.171Z" fill="#F7B733"/>
<path d="M223.189 337.425L222.237 337.542L223.049 344.196L224.001 344.08L223.189 337.425Z" fill="#3F3D56"/>
<path d="M442.895 303.829C442.895 303.829 442.385 296.911 449.223 296.888Z" fill="#3F3D56"/>
<path d="M440.192 297.516C442.055 297.289 443.382 295.597 443.155 293.737C442.928 291.877 441.234 290.553 439.37 290.781C437.507 291.008 436.181 292.7 436.408 294.56C436.635 296.42 438.329 297.744 440.192 297.516Z" fill="#F7B733"/>
<path d="M440.876 299.77L439.924 299.887L440.736 306.541L441.688 306.425L440.876 299.77Z" fill="#3F3D56"/>
<path d="M250.263 148.75L254.219 144.715C250.768 144.756 249.595 146.78 249.202 148.318C246.407 147.54 243.688 149.338 243.688 149.338L252.845 151.446C252.259 150.321 251.363 149.385 250.263 148.75V148.75Z" fill="#3F3D56"/>
<path d="M299.776 183.006L303.732 178.971C300.282 179.011 299.109 181.036 298.715 182.573C295.92 181.795 293.201 183.594 293.201 183.594L302.358 185.702C301.772 184.576 300.876 183.641 299.776 183.006V183.006Z" fill="#3F3D56"/>
<path d="M239.559 199.133L243.515 195.098C240.065 195.138 238.892 197.163 238.498 198.7C235.703 197.922 232.984 199.721 232.984 199.721L242.141 201.829C241.555 200.703 240.659 199.768 239.559 199.133Z" fill="#3F3D56"/>
<path opacity="0.2" d="M397.966 270.423C398.909 278.069 398.255 285.828 396.045 293.21L291.282 255.86L283.32 253.054L293.427 251.257L381.024 235.687C390.606 244.398 396.276 256.567 397.966 270.423Z" fill="black"/>
<path d="M406.1 238.074L264.212 255.386L262.82 243.978L329.692 205.91L404.708 226.667L406.1 238.074Z" fill="#3F3D56"/>
<path d="M219.746 240.298C239.053 237.943 252.798 220.401 250.445 201.117C248.092 181.833 230.533 168.11 211.226 170.466C191.918 172.821 178.174 190.363 180.527 209.647C182.88 228.931 200.439 242.654 219.746 240.298Z" fill="#F7B733"/>
<path d="M419.144 106.41C411.418 107.347 404.015 110.064 397.517 114.348C391.019 118.631 385.604 124.365 381.698 131.096C376.436 129.555 370.873 129.344 365.509 130.483C360.146 131.622 355.149 134.076 350.967 137.623C346.786 141.17 343.551 145.7 341.552 150.806C339.554 155.912 338.855 161.435 339.517 166.878L475.254 150.317C474.453 143.75 472.366 137.405 469.112 131.644C465.859 125.883 461.503 120.82 456.292 116.743C451.082 112.666 445.12 109.655 438.746 107.882C432.372 106.109 425.711 105.609 419.144 106.41V106.41Z" fill="#CCCCCC"/>
</svg>
